<svg width="25" height="24" viewBox="0 0 25 24" fill="none" xmlns="http://www.w3.org/2000/svg">
<path d="M12.2048 2C6.66734 2 2.16211 6.486 2.16211 12C2.16211 17.514 6.68852 22 12.2522 22C17.8159 22 22.3423 17.514 22.3423 12C22.3423 6.486 17.7947 2 12.2048 2ZM12.2522 20C7.80146 20 4.18013 16.411 4.18013 12C4.18013 7.589 7.77926 4 12.2048 4C16.6828 4 20.3243 7.589 20.3243 12C20.3243 16.411 16.7029 20 12.2522 20Z" fill="currentColor"/>
<path d="M11.2432 7H13.2612V14H11.2432V7ZM11.2432 15H13.2612V17H11.2432V15Z" fill="currentColor"/>
</svg>
