<svg width="25" height="24" viewBox="0 0 25 24" fill="none" xmlns="http://www.w3.org/2000/svg">
<path d="M12.2048 2C6.66734 2 2.16211 6.486 2.16211 12C2.16211 17.514 6.68852 22 12.2522 22C17.8159 22 22.3423 17.514 22.3423 12C22.3423 6.486 17.7947 2 12.2048 2ZM12.2522 20C7.80146 20 4.18013 16.411 4.18013 12C4.18013 7.589 7.77926 4 12.2048 4C16.6828 4 20.3243 7.589 20.3243 12C20.3243 16.411 16.7029 20 12.2522 20Z" fill="currentColor"/>
<g clip-path="url(#clip0)">
<path d="M15.825 7.58594L11.2017 13.627L8.46829 10.9199L7.20703 12.1699L11.4106 16.3359L17.2971 8.83594L15.825 7.58594Z" fill="currentColor"/>
</g>
<defs>
<clipPath id="clip0">
<rect width="10.0901" height="10" fill="currentColor" transform="translate(7.20703 7)"/>
</clipPath>
</defs>
</svg>
