<svg width="25" height="24" viewBox="0 0 25 24" fill="none" xmlns="http://www.w3.org/2000/svg">
<path d="M11.117 16.875C11.117 17.1734 11.2366 17.4595 11.4495 17.6705C11.6624 17.8815 11.9511 18 12.2522 18C12.5532 18 12.842 17.8815 13.0548 17.6705C13.2677 17.4595 13.3873 17.1734 13.3873 16.875C13.3873 16.5766 13.2677 16.2905 13.0548 16.0795C12.842 15.8685 12.5532 15.75 12.2522 15.75C11.9511 15.75 11.6624 15.8685 11.4495 16.0795C11.2366 16.2905 11.117 16.5766 11.117 16.875ZM11.4954 9.75V14.0625C11.4954 14.1656 11.5806 14.25 11.6846 14.25H12.8197C12.9238 14.25 13.0089 14.1656 13.0089 14.0625V9.75C13.0089 9.64687 12.9238 9.5625 12.8197 9.5625H11.6846C11.5806 9.5625 11.4954 9.64687 11.4954 9.75ZM22.7451 20.0625L12.9072 3.1875C12.7606 2.93672 12.5076 2.8125 12.2522 2.8125C11.9968 2.8125 11.7414 2.93672 11.5971 3.1875L1.75927 20.0625C1.46839 20.5641 1.83258 21.1875 2.41434 21.1875H22.09C22.6718 21.1875 23.036 20.5641 22.7451 20.0625ZM4.21637 19.4086L12.2522 5.62266L20.288 19.4086H4.21637Z" fill="currentColor"/>
</svg>
